PathFileType	4	(X/Y/Z)	c:/Users/goper/Files/vsCode/490R/osim_files/C11/C11_SSWS_02.trc
DataRate	CameraRate	NumFrames	NumMarkers	Units                	OrigDataRate	OrigDataStartFrame	OrigNumFrames
120.00	120.00	4	36	mm	120.0	774	1238
                Frame#	Time	LPSI			LASI			LTH1			LTH2			LTH3			LTH4			LLFE			LMFE			LSH1			LSH2			LSH3			LSH4			LLMA			LMMA			LCAL			LMTP			LTOE			LMTP			RPSI			RASI			RTH1			RTH2			RTH3			RTH4			RLFE			RMFE			RSH1			RSH2			RSH3			RSH4			RLMA			RMMA			RCAL			RMTP			RTOE			RMTP		
		X1	Y1	Z1	X2	Y2	Z2	X3	Y3	Z3	X4	Y4	Z4	X5	Y5	Z5	X6	Y6	Z6	X7	Y7	Z7	X8	Y8	Z8	X9	Y9	Z9	X10	Y10	Z10	X11	Y11	Z11	X12	Y12	Z12	X13	Y13	Z13	X14	Y14	Z14	X15	Y15	Z15	X16	Y16	Z16	X17	Y17	Z17	X18	Y18	Z18	X19	Y19	Z19	X20	Y20	Z20	X21	Y21	Z21	X22	Y22	Z22	X23	Y23	Z23	X24	Y24	Z24	X25	Y25	Z25	X26	Y26	Z26	X27	Y27	Z27	X28	Y28	Z28	X29	Y29	Z29	X30	Y30	Z30	X31	Y31	Z31	X32	Y32	Z32	X33	Y33	Z33	X34	Y34	Z34	X35	Y35	Z35	X36	Y36	Z36

774	6.44167	-1995.92310	974.27881	254.98576	-2169.66675	975.93079	335.28107	-2082.93481	576.72589	362.29263	-2089.61743	529.41516	362.02750	-2139.30615	577.29468	385.08597	-2138.12109	531.42993	380.01715	-2107.39453	470.34283	372.45200	-2144.15552	460.90613	261.31683	-2009.68213	444.38889	381.53574	-1974.10352	418.14999	382.18018	-2042.62305	392.25751	389.57294	-2002.11047	372.56067	388.46637	-1764.04773	251.27052	334.64969	-1799.74792	234.77617	244.22688	-1717.27991	295.97769	275.58173	-1744.42993	125.33856	351.73462	-1800.37500	71.40746	288.94955	-1776.23059	104.47845	242.50829	-2003.00244	992.61243	172.70999	-2173.46509	976.70038	103.87434	-2202.11133	620.83405	75.20092	-2219.82495	581.69934	87.41708	-2262.02124	642.11945	87.85771	-2267.39160	599.63043	96.60017	-2266.01587	513.73395	111.58302	-2234.83057	497.32190	220.53612	-2207.67773	400.87231	96.51039	-2213.32202	355.52457	101.12344	-2269.90552	400.83163	106.69344	-2268.38843	354.29480	108.10314	-2230.97803	98.50275	157.49916	-2257.64087	110.76038	254.73633	-2167.92993	64.59812	213.71504	-2385.21118	54.56643	232.16280	-2388.91455	68.56962	182.34114	-2345.96826	45.95530	121.07588
775	6.45000	-2004.76880	975.55884	254.37410	-2178.44824	977.77179	334.77301	-2099.99316	577.60443	361.33157	-2107.49609	530.50470	361.07675	-2155.95557	579.28265	384.70267	-2156.02808	533.45398	379.48584	-2127.58643	472.38928	372.42081	-2163.71240	463.28784	260.35568	-2031.02979	446.17981	381.82080	-1995.37195	420.12762	382.69110	-2063.80200	393.95074	389.05630	-2023.21021	374.39267	388.33563	-1785.63989	256.37778	334.81790	-1818.05188	238.90247	245.07759	-1738.70215	303.28055	277.26663	-1761.21216	131.69389	353.20599	-1812.49329	75.65709	290.29944	-1788.58643	109.33405	244.27072	-2011.96960	994.20251	172.09032	-2182.54077	978.58868	103.50668	-2208.37524	621.74976	74.58683	-2225.56299	582.26874	86.86804	-2267.80737	642.09509	87.87148	-2274.86084	599.41479	96.74810	-2269.39771	513.36194	111.15149	-2239.11157	497.53723	220.13243	-2210.18481	401.42938	96.51482	-2216.15869	355.90372	100.67295	-2272.54004	400.73434	106.29980	-2269.87231	353.94797	107.55670	-2230.99219	98.58818	157.52277	-2257.65430	110.77364	254.68726	-2167.93896	64.61507	213.71196	-2385.21802	54.50341	232.16068	-2388.93091	68.48583	182.29475	-2345.98315	45.93592	121.01744
776	6.45833	-2013.48938	977.12183	253.70447	-2186.99585	979.74615	334.19846	-2116.59326	578.97052	360.30392	-2125.39209	531.90924	360.31940	-2172.71582	581.81293	384.15948	-2173.54761	535.89716	379.02902	-2147.47241	474.65228	372.23489	-2183.29492	466.07849	259.60529	-2052.00708	448.33444	382.21841	-2016.28821	422.28793	383.17789	-2084.84326	396.00851	388.59561	-2044.22278	376.40970	388.23502	-1805.57727	261.77017	335.77679	-1836.23157	242.85492	245.79585	-1758.73132	309.16785	278.63397	-1779.20166	137.80809	355.58252	-1827.87781	79.74545	292.27087	-1803.72864	113.72002	246.47598	-2020.85791	995.74573	171.44200	-2191.51709	980.48212	103.13939	-2214.25464	622.55316	74.04581	-2231.04785	582.82275	86.34746	-2273.56128	641.35864	89.00675	-2280.36353	599.45612	96.54719	-2273.46460	513.22107	110.67432	-2242.67041	497.48486	219.65552	-2213.23828	401.72626	95.90128	-2218.65723	356.27264	99.92377	-2275.55347	400.60449	105.95557	-2272.41211	353.80685	107.09608	-2231.07324	98.61295	157.47949	-2257.68604	110.80087	254.62393	-2168.02612	64.65199	213.72136	-2385.17798	54.42467	232.14987	-2388.91724	68.37294	182.21968	-2346.26782	45.85697	120.99556
777	6.46667	-2022.15002	978.89325	253.11961	-2195.55005	981.82642	333.58151	-2133.29395	580.60565	359.68195	-2143.04517	533.68201	359.59894	-2189.19971	584.60938	383.59531	-2190.97729	538.66339	378.54062	-2167.05347	477.36060	372.02658	-2202.52588	469.24567	258.82309	-2072.61035	450.90903	382.56555	-2036.72253	424.94904	383.73013	-2105.31030	398.49368	388.28702	-2064.70947	378.98151	388.28470	-1824.91052	266.61893	336.67023	-1854.56934	246.78839	246.46306	-1777.53845	313.62234	279.46112	-1798.85950	143.13043	357.97766	-1845.94531	83.73513	294.26630	-1821.79651	117.70817	248.90309	-2029.62732	997.41901	170.81169	-2200.31836	982.30817	102.67522	-2219.94580	623.34973	73.54061	-2235.87012	583.53625	85.82777	-2279.32837	641.49365	88.99810	-2285.63501	599.48956	96.37127	-2277.42456	513.03760	110.42227	-2245.87354	497.59500	219.15404	-2216.67554	401.76797	94.87542	-2221.58228	356.36310	98.95434	-2278.74902	400.29462	105.73167	-2275.32471	353.49893	106.83416	-2231.09888	98.65879	157.48137	-2257.70386	110.88113	254.57631	-2167.88379	64.69787	213.46472	-2385.18262	54.41536	232.14049	-2388.90039	68.29110	182.18858	-2346.28052	45.83165	120.93185
